<?xml version="1.0" encoding="utf-8"?>
<!-- Generator: Adobe Illustrator 19.0.0, SVG Export Plug-In . SVG Version: 6.00 Build 0)  -->
<svg version="1.1" id="Layer_1" xmlns="http://www.w3.org/2000/svg" xmlns:xlink="http://www.w3.org/1999/xlink" x="0px" y="0px"
	 viewBox="0 0 512 512" style="enable-background:new 0 0 512 512;" xml:space="preserve">
<g id="XMLID_1_">
	<path id="XMLID_3_" d="M486.3,230.2c12.6,0,22.8-8.7,25.2-21.3c2.4-12.6-4.7-24.4-16.5-28.3L34.3,23.1c-10.2-3.1-21.3,0-28.3,7.9
		c-7.1,8.7-7.9,19.7-2.4,29.1l94.5,157.5c4.7,7.9,12.6,12.6,22,12.6H486.3z"/>
	<path id="XMLID_4_" d="M120.2,281.4c-8.7,0-17.3,4.7-22,12.6L3.6,451.5c-5.5,9.4-4.7,21.3,2.4,29.1c7.1,8.7,18.1,11.8,28.3,7.9
		L495,331c11.8-3.9,18.9-15.7,16.5-28.3c-2.4-12.6-12.6-21.3-25.2-21.3H120.2z"/>
</g>
</svg>
